<svg width="24" height="24" fill="none" xmlns="http://www.w3.org/2000/svg"><path d="M10.434 8.324v1.653h-1.21v2.02h1.21V18h2.486v-6.004h1.668s.157-.968.233-2.028H12.93v-1.38c0-.207.27-.484.54-.484h1.353V6h-1.842c-2.608 0-2.547 2.022-2.547 2.324z" fill="#0039A9"/><path d="M4.8 2.4a2.4 2.4 0 00-2.4 2.4v14.4a2.4 2.4 0 002.4 2.4h14.4a2.4 2.4 0 002.4-2.4V4.8a2.4 2.4 0 00-2.4-2.4H4.8zm0-2.4h14.4A4.8 4.8 0 0124 4.8v14.4a4.8 4.8 0 01-4.8 4.8H4.8A4.8 4.8 0 010 19.2V4.8A4.8 4.8 0 014.8 0z" fill="#0039A9"/></svg>