<svg width="24" height="24" fill="none" xmlns="http://www.w3.org/2000/svg"><rect x="1" y="1" width="22" height="22" rx="3" stroke="#0039A9" stroke-width="2"/><path d="M11.49 11.74c-2.001 0-3.664-1.66-3.664-3.627 0-2.035 1.663-3.697 3.665-3.697 2.07 0 3.664 1.662 3.664 3.697a3.643 3.643 0 01-3.653 3.629l-.012-.001zm0-5.187c-.847 0-1.492.712-1.492 1.56 0 .848.645 1.492 1.493 1.492.881 0 1.492-.644 1.492-1.491 0-.85-.61-1.56-1.493-1.56zm1.459 8.207l2.07 2c.408.44.408 1.085 0 1.493-.44.44-1.12.44-1.459 0l-2.07-2.035-2.001 2.035a1.076 1.076 0 01-.782.304c-.237 0-.508-.102-.746-.304-.407-.408-.407-1.052 0-1.493l2.104-2a9.556 9.556 0 01-2.17-.95c-.51-.27-.61-.949-.34-1.458.34-.508.95-.644 1.494-.304a4.689 4.689 0 004.885 0c.543-.34 1.187-.204 1.493.304.306.51.169 1.187-.306 1.459-.644.407-1.39.712-2.171.95l-.001-.001z" fill="#0039A9"/></svg>