<svg width="24" height="24" fill="none" xmlns="http://www.w3.org/2000/svg"><path d="M18 8.338a4.974 4.974 0 01-1.414.381c.51-.3.898-.775 1.083-1.34a4.992 4.992 0 01-1.565.588 2.473 2.473 0 00-1.796-.766c-1.36 0-2.462 1.086-2.462 2.424 0 .19.022.375.064.552a7.025 7.025 0 01-5.074-2.532c-.219.369-.334.79-.333 1.218 0 .84.435 1.584 1.095 2.017a2.492 2.492 0 01-1.116-.303v.03a2.436 2.436 0 001.976 2.376 2.53 2.53 0 01-1.113.04 2.459 2.459 0 002.3 1.684 4.987 4.987 0 01-3.058 1.037c-.198 0-.394-.012-.587-.034a7.036 7.036 0 003.773 1.091c4.529 0 7.004-3.693 7.004-6.897l-.008-.315c.483-.34.9-.763 1.231-1.251z" fill="#0039A9"/><path d="M4.8 2.4a2.4 2.4 0 00-2.4 2.4v14.4a2.4 2.4 0 002.4 2.4h14.4a2.4 2.4 0 002.4-2.4V4.8a2.4 2.4 0 00-2.4-2.4H4.8zm0-2.4h14.4A4.8 4.8 0 0124 4.8v14.4a4.8 4.8 0 01-4.8 4.8H4.8A4.8 4.8 0 010 19.2V4.8A4.8 4.8 0 014.8 0z" fill="#0039A9"/></svg>