<svg width="24" height="24" fill="none" xmlns="http://www.w3.org/2000/svg"><path d="M4.453 0A4.47 4.47 0 000 4.453v15.094A4.47 4.47 0 004.453 24h15.094A4.47 4.47 0 0024 19.547V4.453A4.47 4.47 0 0019.547 0H4.453zm0 2.182h15.094a2.257 2.257 0 012.271 2.271v15.094a2.257 2.257 0 01-2.271 2.271H4.453a2.256 2.256 0 01-2.271-2.271V4.453a2.257 2.257 0 012.271-2.271zm7.24 5.705c-.801-.007-1.483 0-1.866.188-.256.124-.452.405-.333.418.15.022.486.094.666.337.229.31.221 1.014.221 1.014s.128 1.934-.312 2.178c-.302.166-.716-.171-1.61-1.71-.456-.792-.8-1.665-.8-1.665s-.066-.163-.184-.248a.94.94 0 00-.346-.14l-2.135.012s-.32.013-.434.15c-.107.127-.009.378-.009.378s1.67 3.908 3.562 5.877c1.735 1.808 3.704 1.688 3.704 1.688h.894s.269-.03.405-.175c.129-.136.124-.393.124-.393s-.017-1.196.537-1.375c.55-.171 1.248 1.158 1.994 1.67.567.387.997.302.997.302l1.996-.03s1.04-.064.545-.886c-.038-.063-.286-.605-1.478-1.713-1.253-1.159-1.087-.97.421-2.978.916-1.223 1.283-1.97 1.167-2.293-.109-.302-.783-.222-.783-.222l-2.246.013s-.166-.021-.29.052a.628.628 0 00-.196.242s-.357.946-.83 1.752c-.998 1.695-1.403 1.789-1.564 1.683-.38-.248-.286-.99-.286-1.513 0-1.65.25-2.331-.486-2.51-.243-.06-.422-.097-1.043-.103h-.002z" fill="#0039A9"/></svg>