<svg width="24" height="24" fill="none" xmlns="http://www.w3.org/2000/svg"><rect x="1" y="1" width="22" height="22" rx="3" stroke="#0039A9" stroke-width="2"/><path d="M19 12a7 7 0 11-14 0 7 7 0 0114 0z" stroke="#0039A9" stroke-width="2"/><path fill-rule="evenodd" clip-rule="evenodd" d="M15.489 13.188c-.195-.097-1.148-.564-1.326-.628-.178-.065-.307-.097-.437.096s-.501.628-.615.757c-.113.13-.226.145-.42.048-.194-.096-.82-.3-1.561-.958a5.821 5.821 0 01-1.08-1.338c-.113-.194-.012-.298.086-.395.087-.086.194-.225.29-.338.098-.113.13-.193.194-.322.065-.13.033-.242-.016-.339-.048-.097-.437-1.048-.599-1.434-.156-.375-.316-.325-.436-.33A8.398 8.398 0 009.198 8a.718.718 0 00-.518.241c-.18.194-.68.66-.68 1.611s.696 1.87.793 1.999c.097.13 1.369 2.08 3.316 2.917.463.198.825.317 1.106.407a2.67 2.67 0 001.223.076c.373-.055 1.148-.466 1.31-.917.162-.452.162-.838.113-.92-.048-.08-.18-.13-.372-.226z" fill="#0039A9"/></svg>