<svg width="86" height="86" fill="none" xmlns="http://www.w3.org/2000/svg"><circle cx="43" cy="43" r="42" stroke="#0039A9" stroke-width="2"/><path d="M42.852 22.949c-10 0-15.108 3.053-15.108 3.053a.975.975 0 00-.518 1.076s.769 18.042 2.997 26.373c.905 3.383 4.042 5.887 6.856 7.65a35.482 35.482 0 005.423 2.767.972.972 0 00.7 0s2.608-1.004 5.422-2.767c2.815-1.763 5.951-4.267 6.856-7.65 2.228-8.331 2.204-26.884 2.204-26.884a.978.978 0 00-.518-1.076s-4.315-2.542-14.314-2.542zm0 1.951c8.265 0 11.53 1.334 13.149 2.074-.043.2-.1.998-.1 1.994-2.447-.996-6.483-2.114-13.051-2.114-6.567 0-11.616 1.627-14.065 2.624 0-.895-.108-2.04-.15-2.24 1.619-.74 5.95-2.338 14.217-2.338zm-.002 3.902c6.343 0 11.118 1.367 13.15 2.197 0 7.046-.88 16.258-2.401 21.947-.661 2.472-3.369 4.848-6.007 6.5-2.341 1.467-4.276 2.26-4.74 2.447-.465-.187-2.4-.98-4.74-2.447-2.639-1.652-5.346-4.028-6.007-6.5-1.522-5.689-2.898-14.747-2.898-21.528 2.03-.83 7.298-2.616 13.643-2.616zm5.25 9.356a.973.973 0 00-.668.295l-5.556 5.558-2.823-2.823a.974.974 0 00-1.605 1.062c.054.12.132.227.229.317l3.512 3.516a.973.973 0 001.377 0l6.243-6.25a.977.977 0 00-.708-1.675z" fill="#0039A9"/></svg>