<svg width="86" height="86" fill="none" xmlns="http://www.w3.org/2000/svg"><path d="M60.33 38.68h-.382v-8.856a1.69 1.69 0 000-.204.355.355 0 000-.085.849.849 0 00-.153-.23l-7.53-7.48a.714.714 0 00-.247-.17h-.077a.649.649 0 00-.229 0h-16.48a2.386 2.386 0 00-2.386 2.386v5.095H24.05a1.927 1.927 0 00-1.927 1.834v28.29a4.168 4.168 0 004.16 4.16h32.45a4.152 4.152 0 004.144-4.143v-18.05a2.547 2.547 0 00-2.547-2.548zm-3.286-9.646h-3.88a.68.68 0 01-.68-.68v-3.88l4.56 4.56zm-22.5-5.094a.688.688 0 01.688-.688h15.555v5.094a2.378 2.378 0 002.377 2.378h5.094v21.133a.688.688 0 01-.687.687h-1.29V35.852a2.547 2.547 0 00-2.548-2.547H40.997L39.3 30.078a1.918 1.918 0 00-1.698-1.036h-3.057V23.94zM23.821 59.26V30.97a.23.23 0 01.229-.23h13.585a.22.22 0 01.204.12l1.919 3.684a.849.849 0 00.755.459h13.228a.85.85 0 01.85.849v23.247a4.321 4.321 0 00.849 2.624H26.283a2.462 2.462 0 01-2.462-2.463zm37.358 0a2.445 2.445 0 01-2.377 2.429c-1.885-.467-2.547-1.325-2.547-3.142v-4.33h1.282a2.395 2.395 0 002.386-2.386V40.377h.382a.85.85 0 01.849.85l.025 18.033z" fill="#0039A9"/><path d="M50.082 38.68h-5.629a.85.85 0 100 1.697h4.78v2.692a.85.85 0 001.698 0v-3.54a.85.85 0 00-.849-.85z" fill="#0039A9"/><circle cx="43" cy="43" r="42" stroke="#0039A9" stroke-width="2"/></svg>