<svg width="86" height="86" fill="none" xmlns="http://www.w3.org/2000/svg"><path d="M48.748 47.624l-3.128-3.128a.89.89 0 00-1.288 0 .89.89 0 000 1.288l3.772 3.772c.184.184.46.276.644.276.276 0 .46-.092.644-.276l7.636-7.636a.89.89 0 000-1.288.89.89 0 00-1.288 0l-6.992 6.992z" fill="#0039A9"/><path d="M67.792 55.628l-6.256-6.256c.46-1.104.828-2.3.92-3.496.276-3.128-.644-6.256-2.668-8.648-1.104-1.38-2.484-2.392-4.048-3.128v-4.784c0-2.208-1.84-4.048-4.14-4.048h-2.484V23.98c0-1.38-1.104-2.484-2.576-2.484h-2.76c-.46-1.472-1.84-2.576-3.404-2.576-1.656 0-2.944 1.104-3.404 2.484h-2.76c-1.472.092-2.576 1.196-2.576 2.576v1.288h-2.484c-2.3 0-4.14 1.84-4.14 4.048v29.716c-.092 2.208 1.84 4.048 4.14 4.048H51.6c2.3 0 4.14-1.84 4.14-4.14v-2.944l5.796 5.796c1.656 1.656 4.416 1.748 6.164 0 1.748-1.748 1.84-4.508.092-6.164zm-9.384-17.296c1.656 2.024 2.484 4.692 2.208 7.268-.368 3.772-2.76 6.9-6.072 8.28h-.092c-1.472.644-3.036.828-4.784.736-5.52-.552-9.476-5.428-8.924-10.948.276-2.576 1.472-4.876 3.312-6.532l.092-.092a10.105 10.105 0 017.544-2.392c1.012.092 1.932.368 2.852.736 1.472.736 2.76 1.656 3.864 2.944zM33.476 23.98c0-.368.368-.644.736-.644H37.8c.552 0 .92-.368.92-.92 0-.92.736-1.564 1.656-1.564.92 0 1.748.736 1.748 1.564 0 .552.368.92.92.92h3.588c.368 0 .736.276.736.644v4.416c0 .368-.368.644-.736.644h-12.42c-.368 0-.736-.276-.736-.644V23.98zM51.6 61.24H29.152c-1.288 0-2.392-1.012-2.392-2.208V29.316c0-1.196 1.012-2.208 2.3-2.208h2.484v1.288c0 1.38 1.104 2.484 2.576 2.484h12.42c1.38 0 2.576-1.104 2.576-2.484v-1.288H51.6c1.288 0 2.3 1.012 2.3 2.208v4.048c-.644-.184-1.38-.368-2.116-.368-3.312-.368-6.348.736-8.74 2.668h-11.04c-.552 0-.92.368-.92.92s.368.92.92.92h9.292c-.644.828-1.104 1.656-1.564 2.668h-7.636c-.552 0-.92.368-.92.92s.368.92.92.92h7.176c-.092.552-.276 1.104-.276 1.656v1.012h-6.9c-.552 0-.92.368-.92.92s.368.92.92.92h6.9c.092.92.368 1.748.644 2.668h-7.544c-.552 0-.92.368-.92.92s.368.92.92.92h8.464c.552 1.012 1.288 1.84 2.116 2.576h-10.58c-.552 0-.92.368-.92.92s.368.92.92.92h13.34c1.288.644 2.576 1.012 4.048 1.196 1.472.184 2.944 0 4.416-.368v2.852c.092 1.012-1.012 2.116-2.3 2.116zm14.904-.736c-1.012 1.012-2.576 1.012-3.588 0l-5.888-5.796a11.14 11.14 0 003.588-3.588l5.796 5.796c1.104 1.012 1.104 2.576.092 3.588z" fill="#0039A9"/><circle cx="43" cy="43" r="42" stroke="#0039A9" stroke-width="2"/></svg>