<svg width="86" height="86" fill="none" xmlns="http://www.w3.org/2000/svg"><path d="M30.333 56v.25h-2.25v6.333H41.75V56.25h-1.917v-5.5c0-1.083-.416-2.083-1.166-2.917l-4.084-4.083c-.666-.667-1.75-.917-2.666-.5-.917.417-1.417 1.333-1.334 2.333a3.22 3.22 0 00.917 1.834l2.083 2.083-.583.083c-.833 0-1.583-.333-2.167-.916-1.416-1.417-2.166-3.25-2.166-5.167v-2c0-1.5-.917-2.833-2.25-3.417-.417-.166-.834-.333-1.25-.333-.417-.083-.834.083-1.167.333-.333.25-.5.667-.5 1.084V44.5c0 3 1.167 5.833 3.333 8l3.5 3.5zm9.75 1.917v3H29.75v-3h10.333zm-15-18.584c.167.084.417.084.584.167.75.333 1.25 1.083 1.25 1.833v2c0 2.417.916 4.667 2.666 6.417A4.862 4.862 0 0033 51.167l2.083-.334c.334-.083.667-.333.75-.666.084-.334 0-.75-.25-1l-3-3c-.25-.25-.416-.5-.416-.75 0-.417.25-.584.416-.667.084-.083.417-.167.75.167L37.417 49c.5.5.75 1.083.75 1.75v5.5h-6.25V56c0-.5-.167-.917-.5-1.25l-3.584-3.583C26 49.333 25 46.917 25 44.417v-5.084h.083zm35.834-1.666h-.25c-1.917.416-3.334 2.166-3.334 4.166v1.584c0 2-.75 3.833-2.166 5.166-.584.584-1.334.917-2.167.917l-.583-.083 2.083-2.084c.5-.5.833-1.166.917-1.833.083-1-.417-1.917-1.334-2.333-.916-.417-1.916-.25-2.666.5l-4.084 4.083c-.75.75-1.166 1.833-1.166 2.917v5.5H44.25V62.5h13.667v-6.333H55.75v-.334l3.583-3.583c2.167-2.167 3.334-5 3.334-8v-5.333c0-.417-.167-.834-.5-1.084-.417-.166-.834-.25-1.25-.166zm-4.75 20.25v3h-10.25v-3h10.25zm4.75-13.584c0 2.584-1 5-2.834 6.75L54.5 54.667c-.333.333-.5.75-.5 1.25v.25h-6.25v-5.5c0-.667.25-1.25.75-1.75l4.083-4.084c.334-.333.667-.166.75-.166.084.083.417.25.417.666 0 .25-.167.584-.417.834l-3 3c-.25.25-.333.666-.25 1 .084.333.417.583.75.666l2 .334H53c1.333 0 2.5-.5 3.417-1.417a9.153 9.153 0 002.666-6.417V41.75c0-1.167.75-2.25 1.834-2.5v5.083zM47.75 28.167a4.748 4.748 0 00-4.75-4.75c-2.667 0-4.75 2.083-4.75 4.75 0 1.75.917 3.25 2.333 4.083-3.5 1.083-6.166 4.333-6.166 8.167v.833h17.25v-.833C51.583 36.583 49 33.333 45.5 32.25c1.333-.917 2.25-2.417 2.25-4.083zM49.917 39.5H36.083c.5-3.417 3.417-6 6.917-6s6.417 2.667 6.917 6zM43 31.167a3.076 3.076 0 01-3.083-3.084A3.076 3.076 0 0143 25a3.076 3.076 0 013.083 3.083A3.076 3.076 0 0143 31.167z" fill="#0039A9"/><circle cx="43" cy="43" r="42" stroke="#0039A9" stroke-width="2"/></svg>